<?xml version="1.0" encoding="utf-8"?>
<!-- Generator: Adobe Illustrator 26.0.0, SVG Export Plug-In . SVG Version: 6.00 Build 0)  -->
<svg version="1.1" id="Capa_1" xmlns="http://www.w3.org/2000/svg" xmlns:xlink="http://www.w3.org/1999/xlink" x="0px" y="0px"
	 viewBox="0 0 38.8 39.2" style="enable-background:new 0 0 38.8 39.2;" xml:space="preserve">
<style type="text/css">
	.st0{fill:#303532;}
</style>
<circle class="st0" cx="30.7" cy="35" r="4.1"/>
<circle class="st0" cx="13.4" cy="35" r="4.1"/>
<path class="st0" d="M38.2,7.4c-1.5,4.5-2.7,7.7-4,11.9c-0.9,1.7-2.2,2.4-4,2.4c-4.3,0-11.1,0-15.5,0c-0.6,0-1,0.2-1.3,0.8
	c-0.3,0.7-0.7,1.4-1.1,2.1c-0.4,0.8-0.3,1.1,0.7,1.1c4.5,0,21.6,0,21.9,0c0,1.3,0,2.6,0,3.9c-0.4,0-15.5,0-22.8,0
	c-3.5,0-5.4-3.3-3.6-6.4c0.7-1.2,1.4-2.4,2.1-3.7c0.1-0.3,0.2-0.7,0.1-1C8.5,13.7,6.3,9.1,4.2,4.5C4,4.1,3.7,3.9,3.2,3.9
	c-1.1,0-2.1,0-3.2,0C0,2.6,0,1.3,0,0c2.1,0,4.3,0,6.4,0c0.5,1,1,2,1.4,3.1C8,3.8,8.4,4,9.1,4c9.1,0,18.2,0,27.3,0
	c1.2,0,1.7,0,2.2,0.9C39,5.6,38.4,7,38.2,7.4z"/>
</svg>
